# AST/ASF file generated using VICON BodyLanguage
# -----------------------------------------------
:version 1.10
:name VICON
:units
  mass 1.0
  length 0.45
  angle deg
:documentation
   .ast/.asf automatically generated from VICON data using
   VICON BodyBuilder and BodyLanguage model FoxedUp or BRILLIANT.MOD
:root
   order TX TY TZ RX RY RZ
   axis XYZ
   position 0 0 0  
   orientation 0 -0 0 
:bonedata
  begin
     id 1 
     name lhipjoint
     direction 0.432694 -0.693742 0.575759 
     length 2.19277 
     axis 0 -0 0  XYZ
  end
  begin
     id 2 
     name lfemur
     direction 0.34202 -0.939693 0  
     length 6.69022  
     axis 0 -0 20  XYZ
    dof rx ry rz
    limits (-160.0 20.0)
           (-70.0 70.0)
           (-60.0 70.0)
  end
  begin
     id 3 
     name ltibia
     direction 0.34202 -0.939693 0   
     length 6.50337   
     axis 0 -0 20   XYZ
    dof rx
    limits (-10.0 170.0)
  end
  begin
     id 4 
     name lfoot
     direction 0.158999 -0.435969 0.885805   
     length 2.70564   
     axis -90 -1.13533e-015 20   XYZ
    dof rx rz
    limits (-45.0 90.0)
           (-70.0 20.0)
  end
  begin
     id 5 
     name ltoes
     direction -0.00592919 0.00964381 0.999936   
     length 1.29929   
     axis -90 -1.13533e-015 20   XYZ
    dof rx
    limits (-90.0 20.0)
  end
  begin
     id 6 
     name rhipjoint
     direction -0.414359 -0.700339 0.581234   
     length 2.17212  
     axis 0 -0 0  XYZ 
  end
  begin
     id 7 
     name rfemur
     direction -0.34202 -0.939693 0   
     length 7.17659   
     axis 0 -0 -20   XYZ
    dof rx ry rz
    limits (-160.0 20.0)
           (-70.0 70.0)
           (-70.0 60.0)
  end
  begin
     id 8 
     name rtibia
     direction -0.34202 -0.939693 0   
     length 6.36669   
     axis 0 -0 -20   XYZ
    dof rx
    limits (-10.0 170.0)
 end
 begin
     id 9 
     name rfoot
     direction -0.137064 -0.37658 0.916188   
     length 2.22351  
     axis -90 1.13533e-015 -20   XYZ
    dof rx rz
    limits (-45.0 90.0)
           (-20.0 70.0)
  end
  begin
     id 10 
     name rtoes
     direction -0.000784077 -0.00289101 0.999996   
     length 1.09522   
     axis -90 1.13533e-015 -20   XYZ
    dof rx
    limits (-90.0 20.0)
  end
  begin
     id 11 
     name lowerback
     direction -0.0176242 0.984912 -0.172157   
     length 1.65301   
     axis 0 -0 0   XYZ
    dof rx ry rz
    limits (-20.0 45.0)
           (-30.0 30.0)
           (-30.0 30.0)
  end
  begin
     id 12 
     name upperback
     direction -0.00218128 0.998776 -0.0494072   
     length 1.67776   
     axis 0 -0 0   XYZ
    dof rx ry rz
    limits (-20.0 45.0)
           (-30.0 30.0)
           (-30.0 30.0)
  end
  begin
     id 13 
     name thorax
     direction 0.00544186 0.999658 0.0255711   
     length 1.72293   
     axis 0 -0 0   XYZ
    dof rx ry rz
    limits (-20.0 45.0)
           (-30.0 30.0)
           (-30.0 30.0)
  end
  begin
     id 14 
     name lowerneck
     direction -0.105325 0.983841 0.144785   
     length 2.14226   
     axis 0 -0 0   XYZ
    dof rx ry rz
    limits (-20.0 45.0)
           (-30.0 30.0)
           (-30.0 30.0)
  end
  begin
     id 15 
     name upperneck
     direction 0.0547957 0.988053 -0.144041   
     length 2.17508   
     axis 0 -0 0   XYZ
    dof rx ry rz
    limits (-20.0 45.0)
           (-30.0 30.0)
           (-30.0 30.0)
  end
  begin
     id 16
     name head
     direction 0.0247488 0.997534 -0.0656813  
     length 2.20048  
     axis 0 -0 0   XYZ
    dof rx ry rz
    limits (-20.0 45.0)
           (-30.0 30.0)
           (-30.0 30.0)
  end
  begin
     id 17 
     name lclavicle
     direction 0.820559 0.567247 -0.0701026  
     length 4.09615  
     axis 0 -0 0   XYZ
    dof ry rz
    limits (-20.0 10.0)
           (0.0 20.0)
  end
  begin
     id 18 
     name lhumerus
     direction 0.999977 -0.0067566 -9.96392e-005   
     length 4.59333   
     axis -180 -30 -90   XYZ
    dof rx ry rz
    limits (-60.0 90.0)
           (-90.0 90.0)
           (-90.0 90.0)
  end
  begin
     id 19
     name lradius
     direction 1 -4.48982e-011 -2.53425e-027   
     length 2.81151   
     axis -180 -30 -90   XYZ
    dof rx
    limits (-10.0 170.0)
  end
  begin
     id 20
     name lwrist
     direction 1 -4.48939e-011 -7.39254e-028   
     length 1.40576   
     axis 2.56395e-016 90 90   XYZ
    dof ry
    limits (-180.0 0.0)
 end
  begin
     id 21 
     name lhand
     direction 1 -4.48939e-011 -1.47851e-027   
     length 0.895651   
     axis 9.43423e-016 90 90   XYZ
    dof rx rz
    limits (-90.0 90.0)
           (-45.0 45.0)
  end
  begin
     id 22 
     name lfingers
     direction 1 -4.48978e-011 -2.95702e-027   
     length 0.722097   
     axis 1.88685e-015 90 90   XYZ
    dof rx
    limits (0.0 90.0)
  end
  begin
     id 23
     name lthumb
     direction 0.707107 -6.34931e-011 0.707107   
     length 1.03679   
     axis -90 45 -9.86935e-015   XYZ
    dof rx rz
    limits (-45.0 45.0)
           (-45.0 45.0)
  end
  begin
     id 24 
     name rclavicle
     direction -0.831414 0.553102 -0.0531864   
     length 4.24872  
     axis 0 -0 0   XYZ 
    dof ry rz
    limits (-10.0 20.0)
           (-20.0 0.0)
  end
  begin
     id 25 
     name rhumerus
     direction -0.999916 -0.000939607 0.0129331  
     length 4.74834   
     axis -180 30 90   XYZ
    dof rx ry rz
    limits (-90.0 60.0)
           (-90.0 90.0)
           (-90.0 90.0)
  end
  begin
     id 26 
     name rradius
     direction -1 -4.48956e-011 -1.31752e-027   
     length 2.79907   
     axis -180 30 90   XYZ
    dof rx
    limits (-10.0 170.0)
  end
  begin
     id 27 
     name rwrist
     direction -1 -4.4897e-011 -7.39254e-028   
     length 1.39954   
     axis 2.56395e-016 -90 -90   XYZ
    dof ry
    limits (-180.0 0.0)
  end
  begin
     id 28
     name rhand
     direction -0.999997 -0.00250697 0.000800838   
     length 0.953304   
     axis 9.43423e-016 -90 -90   XYZ
    dof rx rz
    limits (-90.0 90.0)
           (-45.0 45.0)
  end
  begin
     id 29
     name rfingers
     direction -1 -4.48954e-011 -2.95702e-027   
     length 0.763342   
     axis 1.88685e-015 -90 -90   XYZ
    dof rx
    limits (0.0 90.0)
  end
  begin
     id 30
     name rthumb
     direction -0.709701 -0.00217037 0.7045   
     length 1.10115   
     axis -90 -45 9.86935e-015   XYZ
    dof rx rz
    limits (-45.0 45.0)
           (-45.0 45.0)
  end
:hierarchy
  begin
    root lhipjoint rhipjoint lowerback
    lhipjoint lfemur
    lfemur ltibia
    ltibia lfoot
    lfoot ltoes
    rhipjoint rfemur
    rfemur rtibia
    rtibia rfoot
    rfoot rtoes
    lowerback upperback
    upperback thorax
    thorax lowerneck lclavicle rclavicle
    lowerneck upperneck
    upperneck head
    lclavicle lhumerus
    lhumerus lradius
    lradius lwrist
    lwrist lhand lthumb
    lhand lfingers
    rclavicle rhumerus
    rhumerus rradius
    rradius rwrist
    rwrist rhand rthumb
    rhand rfingers
  end

#!OML:ASF G:\ViconDB\ViconDB\414\test\team2\shane.ASF
:FULLY-SPECIFIED
:DEGREES
97
root 4.71747 18.9957 -17.4754 -1.20069 2.17087 -3.84192
lowerback 18.6683 -0.0181363 5.8566
upperback 3.01023 1.42389 3.49869
thorax -7.15482 0.58662 0.0936173
lowerneck -22.0114 -3.72788 -6.98836
upperneck 11.6527 -4.04148 6.44178
head 7.43225 -1.63 2.75561
rclavicle -8.74653e-015 -2.8625e-014
rhumerus 53.0973 -18.4361 335.724
rradius 70.9504
rwrist 22.3341
rhand -40.2621 -24.6789
rfingers 7.12502
rthumb -13.2204 -54.2397
lclavicle -7.95139e-015 -9.54166e-015
lhumerus -133.338 -178.944 206.151
lradius 58.7027
lwrist 0.378156
lhand -46.4986 11.3279
lfingers 7.12502
lthumb -19.2252 40.3977
rfemur -3.85384 -14.4515 12.7978
rtibia 22.8801
rfoot 14.9134 0.907509
rtoes -1.08966
lfemur -4.41515 14.4205 -7.31493
ltibia 24.0668
lfoot 10.038 -14.9861
ltoes 1.10029
98
root 4.72927 18.5491 -17.5239 -1.04259 2.26968 -3.4106
lowerback 18.8653 0.0427766 5.41796
upperback 3.24215 1.42001 3.51916
thorax -7.02113 0.601001 0.361809
lowerneck -22.3698 -3.7845 -7.09635
upperneck 11.1301 -4.06827 6.62344
head 7.32585 -1.62447 2.82607
rclavicle -8.74653e-015 -2.8625e-014
rhumerus 53.0973 -18.4361 335.724
rradius 70.9504
rwrist 22.3341
rhand -40.2621 -24.6789
rfingers 7.12502
rthumb -13.2204 -54.2397
lclavicle -2.127e-014 -5.1684e-014
lhumerus -134.231 -177.702 206.428
lradius 58.8334
lwrist -0.105533
lhand -46.7118 11.148
lfingers 7.12502
lthumb -19.4302 40.1972
rfemur -5.39844 -14.0191 12.2035
rtibia 25.2367
rfoot 15.8294 1.91968
rtoes -1.00029
lfemur -5.71392 14.4332 -7.86869
ltibia 25.8796
lfoot 7.57169 -16.2579
ltoes -10.083
99
root 4.73654 18.0684 -17.575 -1.00658 2.34265 -2.9733
lowerback 19.14 0.154015 4.81424
upperback 3.64929 1.44486 3.55774
thorax -6.74318 0.635644 0.735178
lowerneck -23.0381 -3.85702 -6.75862
upperneck 10.4904 -4.16001 6.41919
head 7.21497 -1.66226 2.68499
rclavicle -8.74653e-015 -2.8625e-014
rhumerus 53.0973 -18.4361 335.724
rradius 70.9504
rwrist 22.3341
rhand -40.2621 -24.6789
rfingers 7.12502
rthumb -13.2204 -54.2397
lclavicle -1.72943e-014 -2.3059e-014
lhumerus -134.79 -176.803 206.791
lradius 58.6091
lwrist -0.894239
lhand -46.6713 10.6472
lfingers 7.12502
lthumb -19.3913 39.7003
rfemur -6.83712 -13.4933 11.5477
rtibia 28.1106
rfoot 9.57324 3.05873
rtoes -16.2935
lfemur -6.7985 13.4265 -8.29825
ltibia 28.7788
lfoot -2.25675 -16.6026
ltoes -23.1934
100
root 4.74147 17.5455 -17.6349 -0.972271 2.38465 -2.6643
lowerback 19.3555 0.212948 4.35741
upperback 4.00038 1.42709 3.57671
thorax -6.4908 0.642627 1.01609
lowerneck -23.1721 -3.94796 -6.79115
upperneck 9.41718 -4.25877 6.69755
head 6.89729 -1.68521 2.76611
rclavicle 7.55382e-015 -1.27222e-014
rhumerus 38.3914 -2.08034 334.547
rradius 73.3309
rwrist 20.552
rhand -38.0318 -19.015
rfingers 7.12502
rthumb -11.07 -48.7031
lclavicle 7.55382e-015 -1.27222e-014
lhumerus -135.355 -175.862 207.218
lradius 58.1669
lwrist -1.79772
lhand -46.3553 9.50878
lfingers 7.12502
lthumb -19.0874 38.5922
rfemur -8.07975 -13.221 10.9868
rtibia 31.7659
rfoot -0.848768 2.64491
rtoes -22.9252
lfemur -7.28488 12.47 -8.38991
ltibia 32.0732
lfoot -11.9739 -15.7825
ltoes -18.4864
101
root 4.7514 17.0862 -17.6895 -0.961519 2.29973 -2.36158
lowerback 19.5529 0.260859 3.99001
upperback 4.39553 1.40001 3.48464
thorax -6.17542 0.641699 1.12963
lowerneck -22.7366 -3.87911 -6.31407
upperneck 7.57287 -4.24384 6.66567
head 6.21606 -1.6801 2.68014
rclavicle 9.93923e-015 -7.95139e-016
rhumerus 37.7273 -1.25771 333.903
rradius 73.412
rwrist 21.278
rhand -37.4317 -18.7124
rfingers 7.12502
rthumb -10.4911 -48.4306
lclavicle 7.55382e-015 -1.27222e-014
lhumerus -135.355 -175.862 207.218
lradius 58.1669
lwrist -1.79772
lhand -46.3553 9.50878
lfingers 7.12502
lthumb -19.0874 38.5922
rfemur -8.84944 -13.2218 10.4265
rtibia 35.8253
rfoot -8.55258 1.68719
rtoes -19.266
lfemur -8.09873 12.2868 -8.32986
ltibia 35.7612
lfoot -20.9483 -15.632
ltoes -18.2748
102
root 4.75441 16.6383 -17.7474 -0.985365 2.19056 -2.1333
lowerback 19.8954 0.319395 3.57973
upperback 4.74709 1.39065 3.40746
thorax -5.98507 0.646209 1.27938
lowerneck -22.1996 -3.86679 -6.09254
upperneck 5.90291 -4.26136 6.81318
head 5.59727 -1.68979 2.69373
rclavicle -1.43125e-014 -4.85035e-014
rhumerus 36.9843 -0.296458 332.69
rradius 73.2554
rwrist 21.9722
rhand -36.9908 -17.3482
rfingers 7.12502
rthumb -10.0658 -47.0874
lclavicle 7.55382e-015 -1.27222e-014
lhumerus -135.355 -175.862 207.218
lradius 58.1669
lwrist -1.79772
lhand -46.3553 9.50878
lfingers 7.12502
lthumb -19.0874 38.5922
rfemur -9.91761 -13.1612 9.95862
rtibia 40.1136
rfoot -17.6686 0.0598836
rtoes -22.2633
lfemur -9.59592 12.6501 -8.3678
ltibia 39.7443
lfoot -27.7925 -15.073
ltoes -12.6321
103
root 4.75672 16.2144 -17.8092 -0.977982 2.08786 -2.21762
lowerback 20.2979 0.300539 3.6279
upperback 4.9693 1.3797 3.29857
thorax -5.95247 0.640902 1.13558
lowerneck -21.7382 -3.83078 -6.00542
upperneck 4.86622 -4.26277 7.24897
head 5.20911 -1.67121 2.82398
rclavicle -5.96354e-015 -1.59028e-014
rhumerus 35.9885 0.944011 330.647
rradius 72.8803
rwrist 23.0502
rhand -36.6476 -16.2548
rfingers 7.12502
rthumb -9.73464 -46.0098
lclavicle 7.55382e-015 -1.27222e-014
lhumerus -135.355 -175.862 207.218
lradius 58.1669
lwrist -1.79772
lhand -46.3553 9.50878
lfingers 7.12502
lthumb -19.0874 38.5922
rfemur -11.9577 -14.42 10.1739
rtibia 44.5272
rfoot -23.4894 -2.14838
rtoes -20.0819
lfemur -11.4185 13.7456 -8.11318
ltibia 44.1002
lfoot -33.3987 -14.9347
ltoes -8.00402
104
root 4.76594 15.9168 -17.8658 -0.327171 2.05136 -2.69486
lowerback 20.5257 0.139197 4.07462
upperback 4.69774 1.2822 3.20733
thorax -6.35392 0.579935 0.80802
lowerneck -21.3333 -3.61319 -5.42961
upperneck 4.55889 -4.14543 7.37053
head 5.03636 -1.60367 2.7863
rclavicle 1.59028e-015 1.35174e-014
rhumerus 34.5936 3.02101 327.721
rradius 72.659
rwrist 24.0272
rhand -36.362 -15.2075
rfingers 7.12502
rthumb -9.45911 -44.9752
lclavicle 7.55382e-015 -1.27222e-014
lhumerus -135.355 -175.862 207.218
lradius 58.1669
lwrist -1.79772
lhand -46.3553 9.50878
lfingers 7.12502
lthumb -19.0874 38.5922
rfemur -14.6892 -15.225 11.1047
rtibia 49.1198
rfoot -28.2277 -4.23306
rtoes -16.046
lfemur -14.0916 15.3967 -7.96294
ltibia 48.7394
lfoot -38.4313 -12.2067
ltoes -10.4882
105
root 4.76517 15.7562 -17.9271 1.37732 2.35082 -3.14049
lowerback 19.7905 -0.0383508 4.32981
upperback 4.38898 1.07619 3.27332
thorax -6.29888 0.475594 0.788684
lowerneck -21.4462 -3.44604 -5.11088
upperneck 3.82954 -3.97816 7.51931
head 4.81128 -1.51074 2.80102
rclavicle 1.39149e-014 2.38542e-014
rhumerus 32.9539 4.91268 324.411
rradius 72.3639
rwrist 25.6161
rhand -36.0613 -15.1711
rfingers 7.12502
rthumb -9.16899 -44.9518
lclavicle 7.55382e-015 -1.27222e-014
lhumerus -135.355 -175.862 207.218
lradius 58.1669
lwrist -1.79772
lhand -46.3553 9.50878
lfingers 7.12502
lthumb -19.0874 38.5922
rfemur -19.0026 -16.0965 12.6277
rtibia 53.9896
rfoot -30.2151 -7.6141
rtoes -17.6956
lfemur -19.0242 16.0179 -8.23833
ltibia 53.9551
lfoot -39.8647 -9.98675
ltoes -13.1729
106
root 4.75651 15.5409 -18.0189 3.12793 2.67839 -2.82826
lowerback 19.2476 -0.070307 3.92808
upperback 4.12136 0.915978 3.04289
thorax -6.30538 0.401281 0.808652
lowerneck -21.5258 -3.37901 -4.60388
upperneck 2.61283 -3.97009 7.73057
head 4.43775 -1.49816 2.78923
rclavicle 1.25234e-014 4.69132e-014
rhumerus 30.176 6.74339 320.618
rradius 72.3254
rwrist 26.4548
rhand -36.1465 -15.2779
rfingers 7.12502
rthumb -9.2512 -45.0549
lclavicle 7.55382e-015 -1.27222e-014
lhumerus -135.355 -175.862 207.218
lradius 58.1669
lwrist -1.79772
lhand -46.3553 9.50878
lfingers 7.12502
lthumb -19.0874 38.5922
rfemur -24.0621 -16.0927 12.9376
rtibia 59.0939
rfoot -29.6491 -8.16171
rtoes -18.0497
lfemur -24.2864 15.7692 -9.15512
ltibia 59.1498
lfoot -39.3499 -10.2385
ltoes -12.5363
